<mxfile host="app.diagrams.net" modified="2024-02-20T09:34:40.097Z" agent="Mozilla/5.0 (Macintosh; Intel Mac OS X 10_15_7) AppleWebKit/537.36 (KHTML, like Gecko) Chrome/121.0.0.0 Safari/537.36" etag="qKuPQlAM1KrcbVj9vNoa" version="23.1.4" type="device">
  <diagram name="Page-1" id="CadQw5tWiO6TVf455hET">
    <mxGraphModel dx="954" dy="583" grid="1" gridSize="10" guides="1" tooltips="1" connect="1" arrows="1" fold="1" page="1" pageScale="1" pageWidth="827" pageHeight="1169" math="0" shadow="0">
      <root>
        <mxCell id="0" />
        <mxCell id="1" parent="0" />
        <mxCell id="5Hxy_TqTP-f-HWl3ijbq-2" value="Computation Service" style="rounded=0;whiteSpace=wrap;html=1;" parent="1" vertex="1">
          <mxGeometry x="530" y="40" width="120" height="60" as="geometry" />
        </mxCell>
        <mxCell id="5Hxy_TqTP-f-HWl3ijbq-9" value="registers &lt;br&gt;participation / input" style="edgeStyle=orthogonalEdgeStyle;rounded=0;orthogonalLoop=1;jettySize=auto;html=1;" parent="1" source="5Hxy_TqTP-f-HWl3ijbq-3" target="5Hxy_TqTP-f-HWl3ijbq-8" edge="1">
          <mxGeometry relative="1" as="geometry" />
        </mxCell>
        <mxCell id="5Hxy_TqTP-f-HWl3ijbq-19" value="Secure data exchange" style="edgeStyle=orthogonalEdgeStyle;rounded=0;orthogonalLoop=1;jettySize=auto;html=1;entryX=0.5;entryY=1;entryDx=0;entryDy=0;startArrow=classic;startFill=1;" parent="1" source="5Hxy_TqTP-f-HWl3ijbq-3" target="5Hxy_TqTP-f-HWl3ijbq-2" edge="1">
          <mxGeometry relative="1" as="geometry" />
        </mxCell>
        <mxCell id="5Hxy_TqTP-f-HWl3ijbq-3" value="Client Service" style="rounded=0;whiteSpace=wrap;html=1;" parent="1" vertex="1">
          <mxGeometry x="530" y="140" width="120" height="60" as="geometry" />
        </mxCell>
        <mxCell id="5Hxy_TqTP-f-HWl3ijbq-7" value="" style="swimlane;startSize=0;" parent="1" vertex="1">
          <mxGeometry x="40" y="40" width="350" height="160" as="geometry" />
        </mxCell>
        <mxCell id="5Hxy_TqTP-f-HWl3ijbq-8" value="Coordination Service REST-API &lt;br&gt;(poem)" style="rounded=0;whiteSpace=wrap;html=1;" parent="5Hxy_TqTP-f-HWl3ijbq-7" vertex="1">
          <mxGeometry x="210" y="50" width="120" height="60" as="geometry" />
        </mxCell>
        <mxCell id="5Hxy_TqTP-f-HWl3ijbq-12" value="Coordination Service" style="text;html=1;align=center;verticalAlign=middle;whiteSpace=wrap;rounded=0;" parent="5Hxy_TqTP-f-HWl3ijbq-7" vertex="1">
          <mxGeometry x="5" width="130" height="30" as="geometry" />
        </mxCell>
        <mxCell id="5Hxy_TqTP-f-HWl3ijbq-14" value="DB&lt;br&gt;for projects and computation states" style="shape=cylinder3;whiteSpace=wrap;html=1;boundedLbl=1;backgroundOutline=1;size=8;" parent="5Hxy_TqTP-f-HWl3ijbq-7" vertex="1">
          <mxGeometry x="20" y="45" width="120" height="70" as="geometry" />
        </mxCell>
        <mxCell id="5Hxy_TqTP-f-HWl3ijbq-17" style="edgeStyle=orthogonalEdgeStyle;rounded=0;orthogonalLoop=1;jettySize=auto;html=1;entryX=1;entryY=0.5;entryDx=0;entryDy=0;entryPerimeter=0;" parent="5Hxy_TqTP-f-HWl3ijbq-7" source="5Hxy_TqTP-f-HWl3ijbq-8" target="5Hxy_TqTP-f-HWl3ijbq-14" edge="1">
          <mxGeometry relative="1" as="geometry" />
        </mxCell>
        <mxCell id="5Hxy_TqTP-f-HWl3ijbq-13" value="start MPC" style="edgeStyle=orthogonalEdgeStyle;rounded=0;orthogonalLoop=1;jettySize=auto;html=1;entryX=0;entryY=0.5;entryDx=0;entryDy=0;" parent="1" target="5Hxy_TqTP-f-HWl3ijbq-2" edge="1">
          <mxGeometry relative="1" as="geometry">
            <mxPoint x="390" y="110" as="sourcePoint" />
            <Array as="points">
              <mxPoint x="390" y="70" />
            </Array>
          </mxGeometry>
        </mxCell>
      </root>
    </mxGraphModel>
  </diagram>
</mxfile>
